<svg width="140" height="41" viewBox="0 0 140 41" fill="none" xmlns="http://www.w3.org/2000/svg">
<rect y="6" width="30" height="30" rx="6" fill="white"/>
<path d="M15.5002 16.278V24H13.6192V19.369L11.8922 24H10.3742L8.63624 19.358V24H6.75524V16.278H8.97724L11.1442 21.624L13.2892 16.278H15.5002ZM18.7009 16.278V20.898C18.7009 21.36 18.8146 21.7157 19.0419 21.965C19.2692 22.2143 19.6029 22.339 20.0429 22.339C20.4829 22.339 20.8202 22.2143 21.0549 21.965C21.2896 21.7157 21.4069 21.36 21.4069 20.898V16.278H23.2879V20.887C23.2879 21.5763 23.1412 22.1593 22.8479 22.636C22.5546 23.1127 22.1586 23.472 21.6599 23.714C21.1686 23.956 20.6186 24.077 20.0099 24.077C19.4012 24.077 18.8549 23.9597 18.3709 23.725C17.8942 23.483 17.5166 23.1237 17.2379 22.647C16.9592 22.163 16.8199 21.5763 16.8199 20.887V16.278H18.7009Z" fill="#1E255E"/>
<path d="M69.789 11.235V30H66.711V17.148L60.987 30H58.854L53.103 17.148V30H50.025V11.235H53.346L59.934 25.95L66.495 11.235H69.789ZM80.2876 30.243C78.8836 30.243 77.6146 29.928 76.4806 29.298C75.3466 28.65 74.4556 27.75 73.8076 26.598C73.1596 25.428 72.8356 24.078 72.8356 22.548C72.8356 21.036 73.1686 19.695 73.8346 18.525C74.5006 17.355 75.4096 16.455 76.5616 15.825C77.7136 15.195 79.0006 14.88 80.4226 14.88C81.8446 14.88 83.1316 15.195 84.2836 15.825C85.4356 16.455 86.3446 17.355 87.0106 18.525C87.6766 19.695 88.0096 21.036 88.0096 22.548C88.0096 24.06 87.6676 25.401 86.9836 26.571C86.2996 27.741 85.3636 28.65 84.1756 29.298C83.0056 29.928 81.7096 30.243 80.2876 30.243ZM80.2876 27.57C81.0796 27.57 81.8176 27.381 82.5016 27.003C83.2036 26.625 83.7706 26.058 84.2026 25.302C84.6346 24.546 84.8506 23.628 84.8506 22.548C84.8506 21.468 84.6436 20.559 84.2296 19.821C83.8156 19.065 83.2666 18.498 82.5826 18.12C81.8986 17.742 81.1606 17.553 80.3686 17.553C79.5766 17.553 78.8386 17.742 78.1546 18.12C77.4886 18.498 76.9576 19.065 76.5616 19.821C76.1656 20.559 75.9676 21.468 75.9676 22.548C75.9676 24.15 76.3726 25.392 77.1826 26.274C78.0106 27.138 79.0456 27.57 80.2876 27.57ZM96.8033 27.246L101.015 15.123H104.282L98.6123 30H94.9403L89.2973 15.123H92.5913L96.8033 27.246ZM120.244 22.197C120.244 22.755 120.208 23.259 120.136 23.709H108.769C108.859 24.897 109.3 25.851 110.092 26.571C110.884 27.291 111.856 27.651 113.008 27.651C114.664 27.651 115.834 26.958 116.518 25.572H119.839C119.389 26.94 118.57 28.065 117.382 28.947C116.212 29.811 114.754 30.243 113.008 30.243C111.586 30.243 110.308 29.928 109.174 29.298C108.058 28.65 107.176 27.75 106.528 26.598C105.898 25.428 105.583 24.078 105.583 22.548C105.583 21.018 105.889 19.677 106.501 18.525C107.131 17.355 108.004 16.455 109.12 15.825C110.254 15.195 111.55 14.88 113.008 14.88C114.412 14.88 115.663 15.186 116.761 15.798C117.859 16.41 118.714 17.274 119.326 18.39C119.938 19.488 120.244 20.757 120.244 22.197ZM117.031 21.225C117.013 20.091 116.608 19.182 115.816 18.498C115.024 17.814 114.043 17.472 112.873 17.472C111.811 17.472 110.902 17.814 110.146 18.498C109.39 19.164 108.94 20.073 108.796 21.225H117.031ZM126.324 11.235V23.196C126.324 24.618 126.693 25.689 127.431 26.409C128.187 27.129 129.231 27.489 130.563 27.489C131.913 27.489 132.957 27.129 133.695 26.409C134.451 25.689 134.829 24.618 134.829 23.196V11.235H137.907V23.142C137.907 24.672 137.574 25.968 136.908 27.03C136.242 28.092 135.351 28.884 134.235 29.406C133.119 29.928 131.886 30.189 130.536 30.189C129.186 30.189 127.953 29.928 126.837 29.406C125.739 28.884 124.866 28.092 124.218 27.03C123.57 25.968 123.246 24.672 123.246 23.142V11.235H126.324Z" fill="#1E255E"/>
</svg>
