<svg width="138" height="30" viewBox="0 0 138 30" fill="none" xmlns="http://www.w3.org/2000/svg">
<path d="M0 6C0 2.68629 2.68629 0 6 0H24C27.3137 0 30 2.68629 30 6V24C30 27.3137 27.3137 30 24 30H6C2.68629 30 0 27.3137 0 24V6Z" fill="white"/>
<path d="M15.5002 10.278V18H13.6192V13.369L11.8922 18H10.3742L8.63624 13.358V18H6.75524V10.278H8.97724L11.1442 15.624L13.2892 10.278H15.5002Z" fill="#1E255E"/>
<path d="M18.7009 10.278V14.898C18.7009 15.36 18.8146 15.7157 19.0419 15.965C19.2692 16.2143 19.6029 16.339 20.0429 16.339C20.4829 16.339 20.8202 16.2143 21.0549 15.965C21.2896 15.7157 21.4069 15.36 21.4069 14.898V10.278H23.2879V14.887C23.2879 15.5763 23.1412 16.1593 22.8479 16.636C22.5546 17.1127 22.1586 17.472 21.6599 17.714C21.1686 17.956 20.6186 18.077 20.0099 18.077C19.4012 18.077 18.8549 17.9597 18.3709 17.725C17.8942 17.483 17.5166 17.1237 17.2379 16.647C16.9592 16.163 16.8199 15.5763 16.8199 14.887V10.278H18.7009Z" fill="#1E255E"/>
<path d="M69.789 5.235V24H66.711V11.148L60.987 24H58.854L53.103 11.148V24H50.025V5.235H53.346L59.934 19.95L66.495 5.235H69.789Z" fill="#1E255E"/>
<path d="M80.2876 24.243C78.8836 24.243 77.6146 23.928 76.4806 23.298C75.3466 22.65 74.4556 21.75 73.8076 20.598C73.1596 19.428 72.8356 18.078 72.8356 16.548C72.8356 15.036 73.1686 13.695 73.8346 12.525C74.5006 11.355 75.4096 10.455 76.5616 9.825C77.7136 9.195 79.0006 8.88 80.4226 8.88C81.8446 8.88 83.1316 9.195 84.2836 9.825C85.4356 10.455 86.3446 11.355 87.0106 12.525C87.6766 13.695 88.0096 15.036 88.0096 16.548C88.0096 18.06 87.6676 19.401 86.9836 20.571C86.2996 21.741 85.3636 22.65 84.1756 23.298C83.0056 23.928 81.7096 24.243 80.2876 24.243ZM80.2876 21.57C81.0796 21.57 81.8176 21.381 82.5016 21.003C83.2036 20.625 83.7706 20.058 84.2026 19.302C84.6346 18.546 84.8506 17.628 84.8506 16.548C84.8506 15.468 84.6436 14.559 84.2296 13.821C83.8156 13.065 83.2666 12.498 82.5826 12.12C81.8986 11.742 81.1606 11.553 80.3686 11.553C79.5766 11.553 78.8386 11.742 78.1546 12.12C77.4886 12.498 76.9576 13.065 76.5616 13.821C76.1656 14.559 75.9676 15.468 75.9676 16.548C75.9676 18.15 76.3726 19.392 77.1826 20.274C78.0106 21.138 79.0456 21.57 80.2876 21.57Z" fill="#1E255E"/>
<path d="M96.8033 21.246L101.015 9.123H104.282L98.6123 24H94.9403L89.2973 9.123H92.5913L96.8033 21.246Z" fill="#1E255E"/>
<path d="M120.244 16.197C120.244 16.755 120.208 17.259 120.136 17.709H108.769C108.859 18.897 109.3 19.851 110.092 20.571C110.884 21.291 111.856 21.651 113.008 21.651C114.664 21.651 115.834 20.958 116.518 19.572H119.839C119.389 20.94 118.57 22.065 117.382 22.947C116.212 23.811 114.754 24.243 113.008 24.243C111.586 24.243 110.308 23.928 109.174 23.298C108.058 22.65 107.176 21.75 106.528 20.598C105.898 19.428 105.583 18.078 105.583 16.548C105.583 15.018 105.889 13.677 106.501 12.525C107.131 11.355 108.004 10.455 109.12 9.825C110.254 9.195 111.55 8.88 113.008 8.88C114.412 8.88 115.663 9.186 116.761 9.798C117.859 10.41 118.714 11.274 119.326 12.39C119.938 13.488 120.244 14.757 120.244 16.197ZM117.031 15.225C117.013 14.091 116.608 13.182 115.816 12.498C115.024 11.814 114.043 11.472 112.873 11.472C111.811 11.472 110.902 11.814 110.146 12.498C109.39 13.164 108.94 14.073 108.796 15.225H117.031Z" fill="#1E255E"/>
<path d="M126.324 5.235V17.196C126.324 18.618 126.693 19.689 127.431 20.409C128.187 21.129 129.231 21.489 130.563 21.489C131.913 21.489 132.957 21.129 133.695 20.409C134.451 19.689 134.829 18.618 134.829 17.196V5.235H137.907V17.142C137.907 18.672 137.574 19.968 136.908 21.03C136.242 22.092 135.351 22.884 134.235 23.406C133.119 23.928 131.886 24.189 130.536 24.189C129.186 24.189 127.953 23.928 126.837 23.406C125.739 22.884 124.866 22.092 124.218 21.03C123.57 19.968 123.246 18.672 123.246 17.142V5.235H126.324Z" fill="#1E255E"/>
</svg>
